<svg xmlns="http://www.w3.org/2000/svg" viewBox="0 0 229.749497 230.253301"
 preserveAspectRatio="xMidYMid meet">
<g transform="translate(-12.250503,242.760607) scale(0.100000,-0.100000)"
fill="#14243A" stroke="none">
<path d="M1973 2258 l-173 -173 -85 85 -85 85 -163 -28 c-293 -49 -287 -48
-287 -66 0 -9 76 -93 170 -186 l170 -170 -105 -105 -105 -105 56 -195 c31
-107 63 -202 70 -210 12 -13 37 8 189 160 l175 175 103 -103 c56 -56 109 -102
117 -102 45 0 400 115 400 129 0 9 -76 93 -170 186 l-170 170 86 86 85 85 -38
225 c-29 170 -42 224 -53 227 -8 1 -91 -74 -187 -170z m197 -95 l28 -168 -81
-82 -82 -83 -102 0 -103 0 0 107 0 108 152 152 c84 84 154 149 156 144 2 -5
16 -85 32 -178z m-471 -44 l81 -81 0 -104 0 -104 -108 0 -107 0 -155 155 c-85
85 -153 156 -150 156 33 8 320 57 336 58 14 1 49 -26 103 -80z m81 -442 l0
-102 -159 -159 c-87 -87 -161 -154 -163 -150 -3 5 -24 78 -49 162 l-43 152 99
100 100 100 107 0 108 0 0 -103z m414 -53 c86 -86 156 -158 154 -159 -2 -2
-75 -24 -162 -50 l-159 -46 -99 98 -98 98 0 107 0 108 104 0 104 0 156 -156z"/>
<path d="M627 1513 c-4 -3 -7 -116 -7 -249 l0 -243 -122 -3 -122 -3 -128 -180
c-71 -99 -127 -187 -125 -195 2 -13 39 -15 250 -18 l247 -2 0 -149 0 -149 185
-101 c102 -56 190 -99 195 -96 6 4 10 105 10 250 l0 244 152 3 153 3 97 175
c53 96 96 184 95 195 -2 19 -10 20 -249 23 l-247 2 -3 123 -3 122 -179 128
c-181 129 -187 132 -199 120z m206 -186 l137 -99 0 -108 0 -108 -77 -76 -77
-76 -73 72 -73 72 0 219 c0 172 3 217 13 210 6 -4 74 -52 150 -106z m-125
-430 l73 -74 -75 -76 -76 -77 -220 0 -219 0 106 150 107 150 116 0 116 0 72
-73z m732 66 c0 -4 -35 -71 -77 -150 l-78 -143 -140 0 -140 0 -72 72 c-40 40
-73 76 -73 80 0 4 30 38 68 77 l67 69 223 1 c122 1 222 -2 222 -6z m-542 -257
l72 -74 0 -217 c0 -256 20 -239 -169 -136 l-131 72 0 146 0 145 70 69 c39 38
74 69 79 69 4 0 40 -33 79 -74z"/>
</g>
</svg>
