<svg xmlns="http://www.w3.org/2000/svg" viewBox="0 0 174.010985 174.802223"
 preserveAspectRatio="xMidYMid meet">
<g transform="translate(-12.000000,186.802223) scale(0.100000,-0.100000)"
fill="#14243A" stroke="none">
<path d="M127 1863 c-4 -3 -7 -397 -7 -875 l0 -868 870 0 870 0 -2 872 -3 873
-861 3 c-473 1 -864 -1 -867 -5z m843 -73 c0 -41 37 -43 42 -2 l3 27 400 0
400 0 3 -822 2 -823 -405 0 -405 0 0 30 c0 23 -4 30 -20 30 -16 0 -20 -7 -20
-30 l0 -30 -402 2 -403 3 -3 810 c-1 446 0 816 3 823 3 9 94 12 405 12 l400 0
0 -30z"/>
<path d="M972 1598 c2 -66 6 -83 18 -83 12 0 16 17 18 83 3 77 2 82 -18 82
-20 0 -21 -5 -18 -82z"/>
<path d="M972 1358 c2 -66 6 -83 18 -83 12 0 16 17 18 83 3 77 2 82 -18 82
-20 0 -21 -5 -18 -82z"/>
<path d="M1425 1270 c-3 -5 4 -28 16 -51 19 -39 20 -41 2 -37 -10 3 -57 17
-104 31 -257 76 -565 61 -820 -41 -56 -22 -75 -34 -77 -51 -5 -29 21 -28 93 4
241 107 629 116 857 21 l30 -13 -26 -7 c-18 -4 -26 -13 -26 -28 0 -20 4 -20
60 -15 127 14 127 13 73 122 -36 71 -61 93 -78 65z"/>
<path d="M970 1116 c0 -80 1 -86 20 -86 29 0 26 163 -2 168 -16 3 -18 -6 -18
-82z"/>
<path d="M977 954 c-4 -4 -7 -43 -7 -86 0 -72 2 -78 20 -78 20 0 21 5 18 82
-3 75 -12 100 -31 82z"/>
<path d="M970 630 c0 -73 2 -80 20 -80 18 0 20 7 20 80 0 73 -2 80 -20 80 -18
0 -20 -7 -20 -80z"/>
<path d="M972 388 c2 -66 6 -83 18 -83 12 0 16 17 18 83 3 77 2 82 -18 82 -20
0 -21 -5 -18 -82z"/>
</g>
</svg>
