<svg xmlns="http://www.w3.org/2000/svg" viewBox="0 0 197.000000 187.831511"
 preserveAspectRatio="xMidYMid meet">
<g transform="translate(-12.000000,199.831511) scale(0.100000,-0.100000)"
fill="#14243A" stroke="none">
<path d="M944 1703 c-80 -164 -148 -300 -150 -302 -3 -3 -150 -26 -329 -52
-329 -48 -345 -51 -345 -72 0 -6 108 -117 240 -247 l240 -235 -55 -315 c-61
-348 -61 -348 -41 -356 7 -3 146 65 309 151 l295 156 138 -74 c269 -143 452
-237 462 -237 21 0 18 36 -34 335 -29 171 -54 319 -54 330 0 13 83 100 235
248 139 136 235 236 235 247 0 14 -10 20 -42 25 -24 3 -173 25 -333 48 l-290
42 -150 300 c-101 203 -156 301 -168 303 -14 3 -47 -57 -163 -295z m134 -387
l-3 -185 -117 123 -118 124 118 241 117 240 3 -179 c1 -98 1 -262 0 -364z
m177 305 c63 -127 115 -235 115 -239 0 -4 -54 -63 -119 -132 l-120 -125 0 369
c-1 203 1 367 4 365 2 -3 56 -110 120 -238z m-346 -387 c61 -64 109 -119 107
-122 -6 -5 -698 148 -709 158 -4 4 102 23 235 42 134 20 246 36 249 37 4 0 57
-51 118 -115z m771 75 c127 -18 227 -36 223 -40 -4 -3 -51 -16 -103 -28 -52
-11 -207 -45 -344 -76 -136 -31 -252 -55 -256 -53 -16 6 215 238 232 234 9 -2
121 -19 248 -37z m-1194 -133 c132 -30 305 -69 387 -87 81 -18 147 -36 147
-40 0 -11 -391 -211 -398 -204 -4 4 -94 92 -200 196 -107 104 -189 189 -184
189 5 0 117 -24 248 -54z m1344 -98 c-85 -83 -176 -171 -201 -195 l-47 -45
-196 104 c-107 56 -196 105 -196 108 0 3 57 18 128 34 70 15 242 54 382 86
140 32 262 58 270 59 8 0 -55 -68 -140 -151z m-816 -115 c-24 -37 -322 -495
-391 -601 -30 -46 -56 -82 -58 -80 -4 3 66 434 80 496 3 12 9 22 13 22 4 0 88
43 187 95 99 52 182 95 184 95 2 0 -5 -12 -15 -27z m447 -116 l105 -57 23
-132 c13 -73 34 -191 46 -262 16 -89 19 -124 10 -115 -16 19 -455 697 -455
705 0 3 37 -14 83 -39 45 -24 130 -70 188 -100z m-381 -126 l0 -249 -127 -67
c-71 -37 -179 -95 -241 -127 -62 -33 -115 -59 -116 -57 -2 2 98 159 222 349
123 190 232 357 241 372 9 16 17 28 19 28 1 0 2 -112 2 -249z m145 114 c89
-138 218 -337 323 -496 40 -62 71 -113 69 -116 -2 -2 -69 31 -148 73 -79 42
-188 98 -241 125 l-98 49 0 252 c0 145 4 248 9 243 5 -6 43 -64 86 -130z"/>
</g>
</svg>
