<svg xmlns="http://www.w3.org/2000/svg" viewBox="0 0 171.124439 181.000000"
 preserveAspectRatio="xMidYMid meet">
<g transform="translate(-12.027977,193.000000) scale(0.100000,-0.100000)"
fill="#14243A" stroke="none">
<path d="M497 1548 l-376 -383 0 -140 -1 -140 376 -382 376 -383 389 0 c374 0
389 1 389 19 0 10 -30 73 -67 140 l-68 121 -222 0 c-132 0 -224 4 -228 10 -3
5 4 51 16 102 18 78 26 97 53 120 40 36 31 39 111 -42 l69 -70 252 0 c204 0
254 3 263 14 9 11 -19 61 -144 250 -85 129 -155 237 -155 240 0 3 70 112 156
241 128 193 154 239 144 250 -10 12 -56 15 -264 15 l-251 0 -75 -75 -76 -75
-31 32 c-27 28 -73 168 -73 223 0 3 101 5 224 5 l225 0 75 131 c41 73 72 138
69 145 -4 12 -74 14 -393 14 l-387 0 -376 -382z m1075 300 c-11 -18 -36 -60
-54 -93 l-34 -60 -382 -3 c-210 -1 -382 1 -382 5 0 4 39 47 87 95 l88 88 348
0 349 0 -20 -32z m-579 -367 c89 -87 231 -226 316 -307 l153 -149 -318 -312
-319 -312 -80 -1 -81 0 -252 260 -252 259 0 106 0 107 174 176 c96 98 207 212
247 255 l73 77 89 0 89 0 161 -159z m27 103 c7 -30 10 -57 8 -59 -3 -4 -118
104 -118 111 0 2 22 4 49 4 l50 0 11 -56z m740 -110 c0 -7 -156 -248 -221
-341 l-36 -53 -68 188 c-38 103 -70 193 -73 200 -3 9 40 12 197 12 111 0 201
-3 201 -6z m-387 -180 c32 -86 56 -158 55 -160 -2 -1 -53 46 -115 105 l-112
108 52 51 c29 29 54 52 57 52 3 0 32 -70 63 -156z m387 -719 c0 -3 -90 -5
-200 -5 -110 0 -200 2 -200 3 0 2 30 84 66 183 36 98 68 187 71 197 5 15 263
-356 263 -378z m-386 181 c-31 -86 -59 -156 -63 -156 -4 0 -29 23 -56 50 l-49
50 109 110 c60 60 110 108 112 106 2 -2 -22 -74 -53 -160z m-356 -301 l-13
-50 -47 -3 c-61 -4 -60 0 10 71 61 62 69 60 50 -18z m513 -185 c27 -47 49 -88
49 -92 0 -5 -154 -8 -342 -8 l-343 0 -87 87 c-49 48 -88 91 -88 95 0 5 172 7
381 6 l382 -3 48 -85z"/>
</g>
</svg>
