<svg xmlns="http://www.w3.org/2000/svg" viewBox="0 0 252.838385 87.596341"
 preserveAspectRatio="xMidYMid meet">
<g transform="translate(-12.161615,99.596341) scale(0.100000,-0.100000)"
fill="#14243A" stroke="none">
<path d="M975 979 c-27 -11 -140 -58 -250 -103 -110 -46 -285 -118 -390 -161
-104 -43 -196 -82 -203 -88 -9 -7 -12 -59 -10 -216 l3 -206 320 -6 320 -5 135
-37 c106 -29 154 -37 222 -37 l88 0 25 40 25 40 303 0 302 1 255 92 c248 90
255 93 281 132 80 120 249 409 249 426 0 35 -29 20 -254 -136 -124 -85 -228
-155 -232 -155 -7 0 -275 103 -849 327 -148 58 -274 107 -280 109 -5 1 -32 -6
-60 -17z m338 -145 c709 -274 797 -309 797 -314 0 -3 -43 -34 -96 -70 -86 -58
-99 -71 -132 -132 l-37 -68 -404 2 -404 3 -89 230 c-49 127 -91 235 -94 240
-4 9 170 215 182 215 2 0 127 -47 277 -106z m-393 60 c0 -3 -27 -36 -59 -73
l-60 -66 -45 -230 c-26 -127 -48 -240 -51 -253 l-5 -22 -265 0 -265 0 0 173 0
172 83 32 c45 18 210 87 367 152 290 122 300 125 300 115z m1604 -174 c-10
-16 -54 -89 -99 -161 l-80 -132 -205 -74 c-113 -40 -208 -73 -213 -73 -4 0 1
16 11 36 14 28 79 77 307 235 158 109 290 199 292 199 2 0 -4 -13 -13 -30z
m-1600 -309 c47 -123 85 -226 82 -228 -3 -3 -244 56 -254 62 -3 2 65 348 74
378 8 25 2 38 98 -212z m269 -226 c-7 -20 -124 -17 -131 3 -3 9 15 12 67 12
59 0 69 -2 64 -15z"/>
</g>
</svg>
