<svg xmlns="http://www.w3.org/2000/svg" viewBox="0 0 217.176539 203.975353"
 preserveAspectRatio="xMidYMid meet">
<g transform="translate(-12.248324,215.939816) scale(0.100000,-0.100000)"
fill="#14243A" stroke="none">
<path d="M2245 2147 c-6 -7 -96 -107 -200 -223 -105 -115 -224 -248 -265 -294
-41 -46 -96 -106 -121 -134 -25 -28 -70 -79 -100 -113 -44 -51 -59 -61 -79
-58 -14 2 -182 72 -375 156 -192 83 -361 153 -375 156 -21 4 -48 -19 -183
-156 l-158 -160 -126 -10 c-180 -14 -183 -25 -33 -103 47 -25 150 -79 230
-121 184 -96 192 -105 270 -298 l63 -155 338 -159 c187 -87 339 -161 339 -164
0 -3 -66 -40 -145 -81 -201 -104 -201 -104 103 -108 l242 -2 71 142 71 143
200 65 c110 35 203 70 205 77 3 7 -23 138 -57 291 l-62 277 101 514 c55 283
98 518 95 522 -8 13 -37 10 -49 -4z m-63 -353 c-27 -137 -66 -338 -88 -446
-30 -156 -42 -198 -54 -197 -37 1 -485 136 -485 145 0 6 61 78 135 161 74 82
225 249 335 371 110 121 201 220 202 218 2 -2 -18 -115 -45 -252z m-1409 -357
c31 -73 57 -135 57 -139 0 -3 -34 -69 -76 -147 l-75 -140 -61 67 c-81 89 -178
208 -178 219 0 8 261 273 270 273 3 0 31 -60 63 -133z m25 123 c9 -6 170 -76
357 -156 187 -80 342 -147 344 -150 3 -2 -4 -11 -15 -18 -10 -8 -121 -95 -245
-194 l-226 -180 -6 -68 c-4 -38 -7 -97 -7 -131 0 -74 3 -73 -92 -28 l-75 36
-61 147 -61 147 84 157 c47 86 85 165 85 175 0 10 -25 74 -55 143 -65 149 -64
141 -27 120z m-348 -360 c33 -39 60 -73 60 -75 0 -3 -60 25 -132 62 -144 72
-146 79 -31 82 40 1 45 -2 103 -69z m1375 -42 c121 -34 222 -63 224 -65 5 -4
109 -467 106 -471 -2 -2 -88 55 -192 126 -103 71 -216 148 -250 171 -34 23
-64 50 -67 59 -6 20 -56 232 -56 238 0 8 18 4 235 -58z m-280 30 c3 -13 18
-75 33 -138 l27 -115 263 -180 c144 -99 262 -183 262 -187 0 -8 -598 -208
-622 -208 -10 0 -75 27 -145 61 -70 33 -172 81 -225 106 l-97 45 6 107 c8 164
-10 139 248 346 127 101 233 184 237 184 4 1 10 -9 13 -21z m195 -813 c0 -18
-93 -186 -99 -179 -58 69 -93 116 -88 120 12 12 187 67 187 59z m-182 -154
c23 -27 38 -51 35 -55 -4 -3 -67 -6 -142 -6 -85 0 -131 4 -125 9 10 11 175
100 185 101 3 0 24 -22 47 -49z"/>
</g>
</svg>
