<svg xmlns="http://www.w3.org/2000/svg" viewBox="0 0 267.795560 170.730615"
 preserveAspectRatio="xMidYMid meet">
<g transform="translate(-12.000000,183.000000) scale(0.100000,-0.100000)"
fill="#14243A" stroke="none">
<path d="M794 1579 c-197 -139 -430 -301 -517 -361 -86 -60 -157 -116 -157
-123 0 -13 60 -140 250 -530 56 -116 126 -260 155 -321 79 -167 78 -168 155
63 l56 166 97 -112 98 -111 529 0 529 0 91 105 c51 58 96 105 100 105 5 0 32
-71 60 -157 69 -208 80 -219 124 -120 13 29 72 151 131 272 253 519 306 630
303 642 -2 7 -234 175 -517 373 l-514 360 -307 0 -307 0 -359 -251z m646 -288
l0 -489 -245 -239 c-135 -131 -249 -239 -253 -241 -10 -3 -182 193 -182 208 0
10 393 1176 415 1233 6 15 23 17 136 17 l129 0 0 -489z m313 447 c27 -71 407
-1199 407 -1207 0 -9 -167 -205 -178 -209 -5 -1 -119 106 -255 239 l-247 241
0 489 0 489 129 0 128 0 16 -42z m-753 -334 c-164 -487 -209 -616 -215 -623
-4 -3 -27 6 -53 20 -26 13 -158 85 -295 159 -136 73 -245 135 -243 137 12 13
911 640 914 638 1 -1 -47 -150 -108 -331z m1295 -4 c231 -161 423 -296 427
-299 4 -4 -79 -53 -185 -110 -105 -57 -235 -128 -288 -158 -54 -29 -101 -53
-107 -53 -5 0 -26 46 -46 103 -68 194 -286 842 -286 851 0 4 15 -3 33 -16 17
-14 221 -156 452 -318z m-1790 -533 c143 -77 261 -140 263 -142 2 -2 -166
-496 -171 -502 -2 -1 -52 97 -112 220 -60 122 -133 272 -162 332 -114 232
-124 256 -100 244 12 -7 139 -75 282 -152z m2121 -29 c-316 -655 -299 -623
-313 -592 -19 45 -164 476 -161 479 2 1 122 67 268 145 146 78 269 146 275
151 29 27 15 -10 -69 -183z m-1098 -151 c60 -60 62 -65 51 -90 -12 -27 -13
-27 -121 -27 -106 0 -109 0 -120 25 -11 24 -7 30 52 90 36 36 67 65 70 65 3 0
34 -28 68 -63z m-220 -137 l14 -30 138 0 138 0 12 30 c7 17 16 29 20 28 15 -6
280 -261 280 -269 0 -5 -205 -9 -457 -9 l-458 1 145 139 c80 77 147 140 150
140 3 0 11 -13 18 -30z"/>
<path d="M1113 1268 c-34 -16 -57 -69 -49 -111 21 -115 196 -97 196 20 0 80
-74 126 -147 91z m93 -63 c15 -23 15 -27 0 -50 -30 -46 -96 -26 -96 29 0 46
69 61 96 21z"/>
<path d="M1701 1264 c-80 -56 -45 -184 51 -184 84 0 130 70 96 145 -23 50
-101 71 -147 39z m93 -50 c9 -8 16 -22 16 -30 0 -55 -66 -75 -96 -29 -33 50
38 102 80 59z"/>
</g>
</svg>
