<svg xmlns="http://www.w3.org/2000/svg" viewBox="0 0 243.019667 210.863835"
 preserveAspectRatio="xMidYMid meet">
<g transform="translate(-12.480333,222.863835) scale(0.100000,-0.100000)"
fill="#14243A" stroke="none">
<path d="M1032 2092 l-269 -137 -36 28 c-29 22 -46 27 -89 26 -57 0 -404 -51
-413 -60 -12 -13 -105 -325 -100 -338 7 -18 31 -12 142 37 l92 40 105 -179
c59 -98 114 -182 124 -187 9 -5 106 -31 215 -58 l199 -49 176 -250 c96 -137
238 -340 315 -450 246 -352 278 -395 292 -395 19 0 26 15 90 190 l54 153 -14
69 c-21 98 -20 106 31 298 25 95 42 176 37 180 -4 4 -93 71 -198 150 -104 79
-219 166 -255 194 -36 27 -67 51 -69 53 -9 6 11 15 196 87 l190 74 319 12
c345 13 389 18 389 40 0 18 -1 19 -555 281 -107 50 -289 137 -405 192 -115 54
-229 108 -252 118 l-41 18 -270 -137z m839 -185 c294 -140 541 -256 549 -259
19 -6 -132 -16 -380 -24 l-195 -6 -230 -88 c-126 -48 -270 -100 -320 -115 -90
-27 -205 -44 -205 -30 0 4 11 44 24 89 14 44 64 212 111 371 102 345 92 315
104 315 5 0 249 -114 542 -253z m-611 237 c0 -3 -46 -159 -101 -347 -56 -188
-111 -375 -123 -414 -11 -40 -23 -73 -26 -73 -6 0 -298 531 -302 550 -2 6 115
72 267 149 274 140 285 145 285 135z m-642 -226 l22 -43 -31 -225 c-16 -123
-31 -225 -32 -227 -4 -4 -287 475 -287 486 0 6 15 11 33 12 17 0 79 9 137 19
58 10 112 18 120 19 8 1 25 -18 38 -41z m76 27 c18 -14 18 -15 2 -21 -11 -4
-22 -1 -27 7 -19 31 -6 38 25 14z m-407 -137 c46 -77 46 -77 -27 -108 -36 -16
-66 -27 -68 -25 -5 4 52 185 58 185 3 0 20 -24 37 -52z m539 -273 c74 -136
133 -250 130 -252 -5 -5 -310 67 -326 77 -8 5 33 377 46 419 6 20 2 27 150
-244z m782 -302 c294 -223 275 -207 254 -214 -9 -3 -105 -16 -212 -29 l-195
-23 -120 82 c-66 45 -157 108 -203 139 -79 54 -82 57 -76 87 13 61 19 65 92
65 44 0 97 9 148 24 43 14 85 25 92 25 7 1 106 -70 220 -156z m-128 -362 c36
-36 139 -144 230 -240 l165 -173 -34 -95 c-47 -135 -61 -167 -70 -157 -18 20
-641 912 -641 918 0 17 294 -195 350 -253z m409 -62 c-33 -124 -40 -165 -36
-209 l6 -55 -105 110 c-165 174 -233 249 -234 260 -1 10 403 64 408 54 1 -3
-16 -75 -39 -160z"/>
</g>
</svg>
