<svg xmlns="http://www.w3.org/2000/svg" viewBox="0 0 255.953908 148.109178"
 preserveAspectRatio="xMidYMid meet">
<g transform="translate(-12.190742,160.000000) scale(0.100000,-0.100000)"
fill="#14243A" stroke="none">
<path d="M653 1452 l-169 -148 -159 -59 c-88 -32 -170 -62 -182 -66 -37 -14
-27 -34 47 -93 38 -31 70 -63 70 -71 0 -38 -20 -61 -68 -78 -28 -10 -56 -24
-62 -32 -17 -20 32 -209 72 -277 l33 -55 245 -82 c135 -45 251 -81 259 -81 7
0 38 14 68 31 30 17 56 29 59 27 2 -3 8 -81 12 -174 l7 -169 47 -3 48 -3 157
133 c87 73 202 170 256 215 l98 82 269 1 268 1 199 -175 c199 -176 228 -195
238 -153 12 55 145 867 144 883 0 11 -52 62 -125 124 -179 151 -181 153 -160
185 16 25 19 25 139 25 l123 0 48 49 c81 82 76 86 -154 89 l-196 2 -39 -40
c-48 -49 -45 -49 -100 3 l-45 44 -413 6 c-226 4 -514 7 -639 7 l-226 0 -169
-148z m1542 -23 c67 -66 115 -121 111 -127 -3 -6 -138 -121 -299 -255 -160
-135 -398 -334 -527 -443 -474 -398 -533 -445 -541 -437 -5 5 -10 85 -11 178
l-3 169 87 66 c47 36 89 68 92 71 3 3 -48 202 -114 443 -66 240 -120 442 -120
448 0 7 180 9 603 7 l603 -4 119 -116z m-1345 -11 c15 -57 67 -244 114 -416
47 -173 86 -318 86 -322 0 -18 -256 -200 -281 -200 -3 0 -9 55 -13 122 -7 134
-7 132 -177 540 -27 65 -49 122 -49 128 0 10 283 261 288 255 2 -2 16 -50 32
-107z m1740 104 c0 -25 -30 -32 -137 -32 -62 0 -113 2 -113 4 0 2 -3 11 -6 20
-5 14 10 16 125 16 72 0 131 -4 131 -8z m-296 -38 c6 -17 -9 -54 -23 -54 -24
0 -34 31 -16 50 22 24 31 25 39 4z m168 -300 c86 -75 99 -90 96 -113 -53 -329
-135 -791 -140 -791 -8 0 -594 515 -603 530 -2 4 41 46 98 93 56 47 176 149
267 226 91 77 169 140 174 140 4 1 53 -38 108 -85z m-1897 -139 c43 -104 84
-205 92 -224 l14 -33 -33 23 c-87 61 -417 310 -427 323 -9 11 14 22 126 64 76
27 141 47 144 43 4 -3 42 -91 84 -196z m-56 -200 c105 -77 192 -149 195 -160
9 -30 7 -215 -1 -215 -5 0 -104 32 -221 71 -212 71 -213 71 -239 112 l-26 41
36 66 c34 62 35 68 25 109 -10 37 -9 45 5 53 10 5 17 22 17 39 0 40 -9 45 209
-116z m-281 17 c7 -22 5 -36 -8 -62 l-18 -34 -11 39 c-14 52 -14 72 2 78 22 9
25 7 35 -21z m1642 -169 c54 -49 96 -91 93 -95 -6 -11 -403 -10 -403 1 0 8
199 180 209 181 1 0 47 -39 101 -87z"/>
</g>
</svg>
