<svg xmlns="http://www.w3.org/2000/svg" viewBox="0 0 190.068037 190.000000"
 preserveAspectRatio="xMidYMid meet">
<g transform="translate(-12.931963,202.000000) scale(0.100000,-0.100000)"
fill="#14243A" stroke="none">
<path d="M868 1938 l-118 -82 0 -143 0 -143 -310 0 c-306 0 -310 0 -310 -21 0
-12 60 -90 145 -190 l145 -169 85 0 85 0 0 -160 0 -160 -224 0 c-178 0 -226
-3 -235 -14 -9 -11 19 -49 139 -190 l150 -176 108 0 107 -1 218 -184 c120
-102 222 -185 226 -185 5 0 107 83 227 185 l219 185 106 0 107 0 146 170 c83
97 146 178 146 190 0 19 -6 20 -230 20 l-230 0 0 160 0 160 84 0 83 0 147 170
c92 106 146 177 144 188 -3 16 -29 17 -311 20 l-307 2 0 143 -1 142 -118 83
-118 82 -94 0 -94 0 -117 -82z m390 -39 l102 -70 0 -130 0 -129 -285 0 -286 0
3 127 3 127 100 72 100 73 80 1 80 0 103 -71z m-690 -389 c-8 -22 -133 -250
-138 -250 -6 0 -220 247 -220 255 0 3 81 5 181 5 110 0 179 -4 177 -10z m952
-474 l0 -485 -216 -183 c-119 -101 -219 -184 -222 -185 -4 -2 -81 60 -172 138
-91 77 -188 159 -217 182 l-52 42 -1 488 0 487 440 0 440 0 0 -484z m419 467
c-8 -10 -43 -52 -79 -93 -36 -42 -79 -93 -97 -115 -17 -22 -33 -38 -36 -35 -9
10 -137 246 -137 253 0 4 82 7 181 7 171 0 181 -1 168 -17z m-1349 -173 l0
-100 -55 0 c-30 0 -55 3 -55 6 0 8 101 194 106 194 2 0 4 -45 4 -100z m1039 2
c28 -50 51 -94 51 -97 0 -3 -25 -5 -55 -5 l-55 0 0 102 c0 56 2 99 4 97 2 -2
27 -46 55 -97z m-1059 -519 c0 -4 -24 -50 -54 -102 -30 -53 -60 -108 -67 -124
-7 -15 -16 -26 -20 -25 -9 4 -219 245 -219 252 0 3 81 6 180 6 99 0 180 -3
180 -7z m1368 -11 c-22 -32 -203 -241 -208 -241 -5 -1 -124 212 -136 242 -6
16 7 17 175 17 175 0 182 -1 169 -18z m-1352 -259 c-2 -2 -27 -3 -54 -1 l-51
3 52 94 52 94 3 -93 c1 -51 1 -94 -2 -97z m1047 85 l47 -88 -55 0 -55 0 0 97
c0 110 0 110 63 -9z"/>
</g>
</svg>
