<svg xmlns="http://www.w3.org/2000/svg" viewBox="0 0 228.270321 130.923937"
 preserveAspectRatio="xMidYMid meet">
<g transform="translate(-12.672976,142.735148) scale(0.100000,-0.100000)"
fill="currentColor" stroke="none">
<path d="M1248 1413 c-8 -10 -95 -157 -193 -328 -98 -171 -179 -311 -180 -313
-2 -2 -88 36 -191 84 -580 266 -548 253 -557 230 -5 -13 470 -912 502 -950 18
-21 1262 -25 1278 -3 6 6 61 106 123 222 62 116 130 242 150 280 248 460 244
450 217 461 -7 2 -174 -70 -371 -161 -196 -91 -359 -165 -360 -165 -3 0 -41
64 -277 474 -57 99 -109 181 -115 183 -6 2 -17 -4 -26 -14z m-11 -809 c-2 -2
-27 7 -55 21 -29 14 -98 46 -155 71 -56 25 -104 48 -106 49 -1 2 68 127 155
278 l159 274 3 -345 c1 -190 1 -347 -1 -348z m226 415 c81 -141 147 -261 147
-267 0 -8 -298 -152 -315 -152 -3 0 -5 158 -5 352 0 295 2 350 13 338 8 -8 80
-130 160 -271z m-903 -161 c488 -225 650 -301 649 -307 -1 -8 -527 -355 -544
-359 -10 -2 -455 804 -455 824 0 1 33 -12 73 -31 39 -18 164 -75 277 -127z
m1760 146 c0 -3 -46 -92 -103 -197 -57 -106 -155 -288 -218 -404 -63 -117
-117 -213 -121 -213 -9 0 -560 362 -556 365 2 2 143 67 313 145 171 79 391
180 490 226 178 83 195 90 195 78z m-776 -658 l260 -171 -267 -3 c-147 -1
-387 -1 -534 0 l-268 3 265 176 c146 97 270 174 275 171 6 -3 127 -82 269
-176z"/>
</g>
</svg>
