<svg xmlns="http://www.w3.org/2000/svg" viewBox="0 0 168.003217 178.772918"
 preserveAspectRatio="xMidYMid meet">
<g transform="translate(-11.996783,190.840458) scale(0.100000,-0.100000)"
fill="currentColor" stroke="none">
<path d="M1620 1851 c-185 -80 -749 -317 -782 -330 -17 -6 -43 -33 -63 -66
-20 -31 -39 -54 -43 -51 -26 16 -297 136 -307 136 -7 0 -51 -26 -98 -57 l-86
-58 -61 -150 c-33 -82 -60 -158 -60 -167 0 -26 32 -23 129 12 47 17 88 27 91
23 4 -5 29 -63 55 -130 l47 -123 239 0 238 0 63 -90 63 -90 65 0 65 -1 239
-290 c131 -160 245 -293 253 -296 36 -14 32 23 -69 563 l-103 549 -72 3 -72 3
111 157 c260 366 338 480 338 496 0 27 -38 18 -180 -43z m80 -26 c0 -5 -79
-120 -130 -190 -20 -27 -108 -151 -195 -275 -88 -124 -191 -270 -230 -325
l-72 -100 -111 -3 -112 -3 0 273 0 273 68 27 c118 47 729 305 748 316 20 12
34 15 34 7z m-1208 -364 c143 -65 218 -101 218 -105 0 -7 -221 -360 -234 -374
-10 -10 -30 31 -94 193 -45 113 -82 211 -82 218 0 9 109 93 127 97 0 0 30 -13
65 -29z m308 -301 l0 -230 -145 0 c-80 0 -145 2 -145 5 0 8 281 455 286 455 2
0 4 -103 4 -230z m-506 103 c14 -37 25 -67 23 -68 -11 -9 -127 -42 -127 -37
-1 14 65 172 72 172 3 0 18 -30 32 -67z m1180 -175 c10 -57 49 -269 87 -472
38 -203 68 -371 66 -372 -1 -2 -99 114 -217 256 l-215 260 -61 0 -62 0 -37 51
c-56 78 -56 79 11 79 l59 1 105 149 105 150 70 0 70 0 19 -102z"/>
</g>
</svg>
