<svg xmlns="http://www.w3.org/2000/svg" viewBox="0 0 195.635264 150.379536"
 preserveAspectRatio="xMidYMid meet">
<g transform="translate(-12.602971,163.000000) scale(0.100000,-0.100000)"
fill="currentColor" stroke="none">
<path d="M919 1454 l-175 -175 -133 56 c-155 65 -130 72 -244 -70 -45 -55
-118 -146 -164 -203 -120 -148 -113 -153 121 -88 155 43 160 44 208 30 l48
-15 0 -218 0 -217 40 -67 c22 -36 40 -68 40 -71 0 -4 -60 -6 -133 -6 l-134 0
-99 -100 c-150 -152 -166 -141 231 -166 182 -12 335 -19 340 -17 6 2 32 46 58
98 l47 95 135 0 135 0 49 -97 c47 -96 49 -98 82 -97 227 10 627 39 637 47 21
17 14 28 -90 133 l-102 104 -133 0 c-73 0 -133 4 -133 8 0 5 16 34 35 66 l35
58 0 224 0 223 43 11 c23 6 47 13 53 14 5 2 82 -16 169 -40 234 -65 239 -62
123 82 -43 54 -122 152 -174 217 -81 101 -98 117 -116 111 -12 -3 -74 -29
-137 -55 l-116 -49 -175 175 c-96 96 -180 175 -185 175 -6 0 -89 -79 -186
-176z m661 -617 l0 -257 -475 0 -475 0 0 257 0 258 238 238 237 237 238 -238
237 -238 0 -257z m-973 447 c49 -20 90 -38 92 -40 2 -2 -23 -33 -57 -68 -52
-54 -62 -70 -62 -99 l0 -35 -40 10 -40 10 0 129 c0 78 4 129 10 129 5 0 49
-16 97 -36z m1093 -94 l0 -129 -32 -9 c-43 -12 -48 -8 -48 36 0 31 -9 45 -57
94 -31 32 -55 59 -52 62 6 6 172 75 182 76 4 0 7 -58 7 -130z m174 -45 c64
-80 113 -145 110 -145 -4 0 -58 14 -121 32 l-113 31 0 114 c0 62 2 113 4 113
2 0 56 -65 120 -145z m-1427 -82 c-7 -6 -219 -64 -223 -61 -1 2 48 66 109 143
l112 139 3 -108 c1 -60 1 -111 -1 -113z m1092 -555 c-6 -13 -27 -49 -47 -81
l-35 -57 -355 2 -355 3 -44 70 c-23 38 -43 73 -43 77 0 5 200 8 445 8 l446 0
-12 -22z m-790 -234 c29 -47 50 -88 47 -91 -6 -6 -369 12 -474 23 l-52 6 67
73 68 73 145 1 145 1 54 -86z m1116 16 c38 -38 66 -72 63 -76 -8 -8 -529 -42
-526 -34 2 3 26 45 53 92 l50 87 145 1 146 0 69 -70z m-955 25 c0 -13 -51
-105 -58 -105 -4 0 -12 8 -18 18 -5 9 -20 34 -33 55 l-23 37 66 0 c36 0 66 -2
66 -5z m510 -2 c0 -5 -16 -32 -34 -62 l-33 -54 -27 58 c-14 32 -26 59 -26 61
0 2 27 4 60 4 33 0 60 -3 60 -7z"/>
</g>
</svg>
