<svg xmlns="http://www.w3.org/2000/svg" viewBox="0 0 157.835838 156.500000"
 preserveAspectRatio="xMidYMid meet">
<g transform="translate(-12.176351,169.000000) scale(0.100000,-0.100000)"
fill="currentColor" stroke="none">
<path d="M125 1678 c-3 -7 -4 -359 -3 -783 l3 -770 785 0 785 0 3 783 2 782
-785 0 c-619 0 -787 -3 -790 -12z m1485 -35 c0 -9 -299 -303 -309 -303 -4 0
-36 20 -71 45 -35 25 -67 45 -71 45 -4 0 -59 -45 -123 -100 -64 -55 -120 -100
-125 -100 -4 0 -60 45 -125 100 -64 55 -120 100 -124 100 -4 0 -36 -20 -70
-45 -34 -25 -65 -45 -69 -45 -10 0 -303 292 -303 302 0 5 313 8 695 8 382 0
695 -3 695 -7z m-1283 -185 c79 -79 143 -147 143 -153 -1 -5 -25 -27 -55 -48
l-55 -38 0 -149 0 -149 131 -131 130 -131 -37 -42 c-55 -62 -401 -407 -408
-407 -3 0 -6 313 -6 695 0 382 3 695 7 695 4 0 72 -64 150 -142z m1323 -555
l0 -698 -226 226 -226 226 131 128 131 128 0 153 0 153 -56 42 c-30 22 -54 43
-52 45 29 34 285 293 291 293 4 1 7 -313 7 -696z m-870 368 l110 -95 0 -349
c0 -224 -4 -347 -10 -345 -5 2 -113 106 -240 231 l-230 229 0 126 0 127 122
88 c68 48 126 86 130 85 4 -2 57 -45 118 -97z m513 8 l117 -82 0 -132 0 -132
-232 -226 c-127 -125 -235 -227 -240 -227 -4 0 -8 157 -8 348 l0 348 38 31
c20 17 71 60 112 96 41 36 80 64 85 63 6 -2 63 -41 128 -87z m-506 -781 l122
-122 73 70 c40 38 97 93 126 123 l54 54 224 -224 224 -224 -692 -3 c-380 -1
-693 0 -695 2 -4 3 427 443 437 445 3 0 60 -54 127 -121z"/>
</g>
</svg>
