<svg xmlns="http://www.w3.org/2000/svg" viewBox="0 0 196.460478 145.612074"
 preserveAspectRatio="xMidYMid meet">
<g transform="translate(-12.427232,158.000000) scale(0.100000,-0.100000)"
fill="currentColor" stroke="none">
<path d="M334 1566 c-3 -7 15 -95 39 -196 l45 -183 -149 -305 c-83 -168 -147
-312 -145 -319 4 -10 46 -13 181 -13 l175 0 0 -210 c0 -173 3 -212 14 -216 8
-3 230 110 493 252 263 141 541 290 618 332 77 41 158 85 180 97 22 12 94 50
160 85 133 70 150 82 142 103 -4 11 -1711 587 -1741 587 -4 0 -9 -6 -12 -14z
m772 -287 c383 -127 694 -232 692 -234 -2 -2 -1173 138 -1313 157 -17 3 -25
23 -52 133 -18 72 -35 140 -38 153 -3 12 -1 22 5 22 6 0 324 -104 706 -231z
m-185 -179 c228 -28 515 -63 638 -77 255 -31 253 -35 -19 -53 -102 -7 -379
-27 -615 -44 l-431 -31 -129 -107 c-72 -59 -131 -105 -133 -104 -1 2 48 107
110 234 104 217 113 232 138 232 15 0 214 -23 441 -50z m1019 -154 c0 -2 -24
-16 -52 -31 -57 -30 -526 -281 -1018 -546 -167 -90 -312 -167 -322 -171 -17
-7 -18 10 -18 321 l0 329 73 6 c39 3 232 17 427 31 195 14 461 34 590 44 251
20 320 23 320 17z m-1460 -241 l0 -115 -77 1 c-43 1 -101 4 -130 7 l-51 7 126
107 c70 59 128 107 130 107 1 1 2 -51 2 -114z"/>
</g>
</svg>
