<svg xmlns="http://www.w3.org/2000/svg" viewBox="0 0 204.799067 211.500000"
 preserveAspectRatio="xMidYMid meet">
<g transform="translate(-12.209134,224.000000) scale(0.100000,-0.100000)"
fill="currentColor" stroke="none">
<path d="M770 1965 c0 -151 -3 -275 -6 -275 -8 0 -147 79 -322 183 -132 78
-170 89 -159 47 3 -11 69 -132 147 -270 81 -142 139 -255 134 -259 -5 -5 -101
-21 -213 -37 -211 -30 -248 -41 -221 -67 8 -7 152 -65 320 -127 l305 -114 149
-6 150 -5 8 -32 c5 -18 20 -40 33 -49 l25 -16 2 -407 c3 -398 3 -406 23 -406
20 0 20 8 23 407 2 397 3 407 22 413 21 7 50 53 50 80 0 13 20 15 137 15 l137
0 315 116 c174 64 322 119 329 121 21 8 14 40 -10 46 -13 3 -111 18 -218 33
-200 28 -221 34 -203 56 34 42 284 501 281 516 -6 29 -28 19 -253 -112 -119
-69 -218 -126 -220 -126 -3 0 -6 123 -7 273 -4 360 7 359 -202 17 -87 -142
-163 -266 -170 -275 -9 -12 -40 32 -180 260 -122 198 -175 275 -188 275 -17 0
-18 -15 -18 -275z m193 -72 c319 -517 487 -791 487 -797 0 -3 -144 -6 -320 -6
l-320 0 0 516 c0 302 4 513 9 510 5 -3 70 -104 144 -223z m515 -495 l-3 -243
-142 230 c-78 127 -145 238 -148 246 -4 10 17 52 52 110 33 52 99 159 149 239
l89 145 3 -243 c1 -133 1 -351 0 -484z m-855 312 l147 -85 0 -228 c0 -136 -4
-226 -9 -222 -5 3 -20 24 -33 48 -13 23 -97 171 -186 329 -89 158 -162 290
-162 293 0 4 22 -6 49 -22 26 -15 114 -66 194 -113z m1277 103 c-13 -21 -82
-144 -155 -273 -190 -337 -206 -365 -211 -369 -2 -2 -4 99 -4 226 l0 231 188
110 c103 61 191 111 195 111 5 1 -1 -16 -13 -36z m-1232 -584 c35 -61 62 -113
60 -114 -2 -2 -107 36 -235 83 -128 47 -230 88 -228 90 4 5 291 49 325 51 10
1 40 -41 78 -110z m1207 86 c183 -25 186 -21 -69 -115 -124 -45 -229 -80 -232
-77 -6 5 13 41 84 160 32 55 36 58 66 53 17 -3 85 -12 151 -21z m-685 -287 c0
-19 -12 -33 -33 -41 -20 -7 -62 28 -52 43 9 15 85 12 85 -2z"/>
</g>
</svg>
