<svg xmlns="http://www.w3.org/2000/svg" viewBox="0 0 249.593818 160.015114"
 preserveAspectRatio="xMidYMid meet">
<g transform="translate(-11.916832,171.955776) scale(0.100000,-0.100000)"
fill="currentColor" stroke="none">
<path d="M1005 1587 c-105 -73 -262 -193 -349 -267 -87 -74 -169 -143 -182
-153 -24 -19 -24 -20 -24 -208 0 -104 -2 -189 -4 -189 -13 0 -126 54 -126 60
0 4 11 12 25 18 27 12 31 34 15 76 -12 33 -31 33 -145 -2 l-90 -28 -3 -71 -3
-71 64 -53 c35 -30 112 -96 170 -146 58 -51 111 -93 119 -93 7 0 58 24 113 54
l100 53 3 71 c2 40 4 72 6 72 2 0 36 -14 77 -30 67 -28 75 -29 86 -14 13 18
53 11 53 -9 0 -7 -9 -118 -20 -247 -11 -129 -20 -247 -20 -262 l0 -28 124 0
124 0 72 180 c44 110 77 180 86 180 7 0 100 -34 206 -76 l193 -75 100 37 c55
20 105 39 112 41 9 4 13 -31 15 -139 l3 -143 121 -3 121 -3 12 43 c6 24 30
111 53 193 41 150 42 150 47 370 l6 220 172 3 c136 2 172 5 176 17 8 20 -5 29
-188 113 l-168 78 -136 194 -137 195 -377 3 -377 2 0 73 c0 65 -10 98 -29 96
-4 0 -92 -59 -196 -132z m175 -57 c0 -104 -1 -110 -20 -110 -23 0 -217 29
-239 36 -12 4 232 182 252 183 4 1 7 -48 7 -109z m470 -585 l0 -555 -37 16
c-21 8 -67 27 -103 40 -142 54 -220 87 -220 93 0 3 32 86 72 185 l72 179 -152
146 -152 146 50 95 c43 82 50 103 50 153 l0 57 210 0 210 0 0 -555z m438 366
l132 -189 0 -258 c0 -143 -4 -264 -8 -270 -4 -7 -54 -30 -112 -52 -285 -109
-328 -126 -362 -138 l-38 -13 0 554 0 555 128 0 128 0 132 -189z m-1064 78
c72 -12 133 -23 135 -24 4 -4 -277 -555 -290 -569 -5 -6 -9 122 -9 302 0 286
1 312 17 312 9 0 76 -9 147 -21z m-204 -339 c0 -181 -3 -330 -7 -330 -5 0 -77
27 -160 61 l-153 61 0 142 0 141 151 128 c83 70 155 127 160 127 5 0 9 -139 9
-330z m420 -30 l122 -114 -64 -31 c-339 -163 -398 -184 -398 -143 0 16 203
409 211 406 3 -2 61 -55 129 -118z m1132 29 c51 -23 95 -43 97 -45 2 -2 -44
-4 -102 -4 l-107 0 0 45 c0 55 -2 55 112 4z m-2062 -159 c0 -5 -31 -26 -70
-45 -70 -35 -70 -35 -70 -12 0 20 9 27 63 44 77 25 77 25 77 13z m1037 -67
c-3 -10 -55 -142 -117 -293 -61 -151 -119 -294 -128 -318 l-16 -42 -83 0 c-60
0 -83 3 -83 13 2 71 41 472 47 478 10 10 364 177 377 178 4 1 6 -7 3 -16z
m-993 -67 l96 -45 0 -86 0 -86 -27 21 c-15 12 -74 62 -132 112 l-104 91 34 18
c19 10 35 18 36 19 1 0 45 -20 97 -44z m284 -91 l-3 -70 -60 -32 c-33 -18 -63
-33 -67 -33 -5 0 -8 58 -8 129 l0 129 70 -27 70 -26 -2 -70z m1532 -272 c-17
-65 -38 -142 -46 -170 l-15 -53 -80 0 -79 0 0 133 0 132 123 45 c67 25 123 42
125 38 2 -4 -11 -60 -28 -125z"/>
</g>
</svg>
