<svg xmlns="http://www.w3.org/2000/svg" viewBox="0 0 205.784938 217.677257"
 preserveAspectRatio="xMidYMid meet">
<g transform="translate(-11.759420,229.677257) scale(0.100000,-0.100000)"
fill="currentColor" stroke="none">
<path d="M288 2281 c-86 -15 -102 -21 -133 -51 -66 -64 -57 -69 122 -72 l158
-3 192 -435 c302 -686 304 -690 325 -690 10 0 72 16 138 35 108 32 124 35 159
24 37 -11 41 -15 45 -53 5 -41 26 -629 26 -717 l0 -45 -187 -18 -188 -17 -49
-48 c-27 -27 -46 -54 -42 -60 5 -8 99 -11 311 -11 l304 0 5 52 c3 29 13 224
22 433 9 209 18 382 20 384 2 2 144 -47 316 -108 327 -116 333 -117 343 -101
6 9 -81 273 -156 478 -26 72 -26 72 31 72 39 0 50 4 50 16 0 18 -133 250 -158
276 -10 10 -104 42 -217 74 l-200 57 -110 87 c-171 135 -134 139 -296 -30 -84
-88 -142 -141 -146 -134 -5 6 -95 131 -202 278 l-195 268 -78 39 c-88 44 -79
43 -210 20z m112 -40 c0 -5 3 -16 6 -25 5 -14 -7 -16 -95 -16 -118 0 -131 13
-28 30 39 6 79 13 87 14 27 6 30 6 30 -3z m108 -40 c25 -13 58 -47 97 -103 33
-45 120 -166 194 -267 74 -101 134 -190 135 -197 1 -6 -32 -46 -72 -87 l-72
-76 -14 32 c-7 18 -75 172 -151 342 -75 171 -143 325 -151 343 -17 37 -15 38
34 13z m856 -383 c50 -40 93 -73 95 -75 2 -2 2 -5 -1 -8 -8 -8 -529 -207 -533
-203 -3 3 337 358 343 358 3 0 45 -32 96 -72z m242 -176 c49 -32 135 -87 191
-123 l103 -64 29 -85 c16 -47 63 -184 105 -304 42 -121 74 -221 71 -224 -2 -2
-93 27 -202 66 -211 76 -753 268 -841 298 -50 18 -59 26 -123 116 -38 53 -72
104 -75 111 -4 11 32 29 138 70 260 102 503 195 509 196 3 1 46 -25 95 -57z
m219 -25 l79 -22 63 -105 c49 -81 59 -106 47 -108 -28 -6 -39 5 -57 57 -14 37
-28 56 -55 73 -21 12 -77 49 -127 81 -97 63 -94 64 50 24z m-868 -404 c17 -24
40 -37 93 -54 39 -13 70 -26 70 -29 0 -6 -154 -52 -155 -47 -1 1 -19 43 -42
92 -23 50 -45 106 -48 125 l-7 35 33 -45 c18 -25 43 -59 56 -77z m455 -183
l53 -20 -17 -362 c-9 -200 -17 -380 -17 -400 -1 -45 -8 -47 -37 -10 -21 26
-22 45 -33 337 -6 171 -13 347 -16 393 -7 92 -9 91 67 62z m-49 -828 c15 -16
24 -31 20 -35 -10 -11 -433 -8 -433 2 0 19 25 24 199 41 97 10 179 18 182 19
3 0 17 -12 32 -27z"/>
</g>
</svg>
