<svg xmlns="http://www.w3.org/2000/svg" viewBox="0 0 237.966333 133.000000"
 preserveAspectRatio="xMidYMid meet">
<g transform="translate(-12.197660,145.000000) scale(0.100000,-0.100000)"
fill="currentColor" stroke="none">
<path d="M275 1411 c-129 -31 -150 -39 -153 -57 -2 -11 24 -74 56 -140 32 -65
87 -178 122 -251 l63 -132 63 -27 64 -27 -23 -31 c-74 -98 -70 -86 -62 -179
l7 -86 117 -96 c64 -53 173 -134 241 -180 l125 -85 105 1 c58 0 128 4 155 7
l50 7 32 310 c17 171 32 311 32 312 1 2 12 -2 26 -9 19 -8 28 -8 40 2 8 7 17
11 19 9 2 -2 15 -134 30 -294 15 -159 29 -299 31 -311 5 -25 65 -34 220 -34
l92 0 129 87 c71 48 167 119 214 158 47 38 97 80 112 91 25 19 28 31 36 109
l8 87 -43 56 c-23 32 -43 60 -43 64 0 4 27 19 59 34 59 26 61 28 102 113 197
405 210 434 197 447 -13 12 -302 84 -338 84 -19 0 -84 -30 -520 -242 l-235
-114 -100 2 -100 1 -359 176 c-249 123 -368 177 -390 176 -17 -1 -98 -18 -181
-38z m506 -161 c167 -83 295 -149 284 -147 -62 13 -813 242 -809 247 8 8 166
48 195 49 15 1 155 -63 330 -149z m1491 128 c54 -13 98 -25 98 -28 0 -7 -821
-253 -826 -247 -2 2 26 18 63 35 38 16 174 82 303 146 129 63 242 116 250 116
8 0 59 -10 112 -22z m-1707 -179 c187 -55 411 -122 497 -147 87 -26 158 -49
158 -52 0 -3 -73 -24 -163 -47 -89 -24 -240 -63 -334 -88 -202 -53 -194 -52
-267 -20 l-57 25 -75 156 c-41 86 -88 183 -104 216 -35 70 -35 71 -12 64 9 -3
170 -51 357 -107z m1861 94 c-4 -10 -51 -108 -104 -220 l-97 -203 -68 -28 -68
-29 -82 23 c-84 23 -243 65 -469 125 -71 18 -128 36 -128 39 0 5 989 306 1014
309 4 1 5 -7 2 -16z m-1076 -328 c0 -84 -5 -96 -28 -73 -9 9 -15 9 -24 0 -23
-23 -28 -11 -28 66 0 90 1 92 47 92 l33 0 0 -85z m-166 -47 c-18 -22 -41 -46
-216 -233 -41 -44 -128 -137 -192 -207 -65 -71 -120 -128 -123 -128 -19 0
-189 155 -194 178 -18 78 -11 112 38 177 l48 61 320 86 c372 100 343 94 319
66z m486 -44 c118 -31 259 -68 312 -83 l96 -26 49 -62 48 -63 -5 -67 -5 -66
-98 -81 -98 -80 -35 39 c-19 22 -63 69 -97 105 -35 36 -121 128 -192 205 -71
77 -151 164 -179 194 -34 35 -44 51 -31 48 11 -3 117 -31 235 -63z m-440 -1
c0 -24 -70 -696 -73 -699 -1 -2 -57 -4 -123 -5 l-121 -1 -107 72 c-58 39 -106
74 -106 77 0 3 21 29 48 57 26 28 101 110 167 181 66 71 156 167 200 213 44
46 84 90 88 98 8 15 27 19 27 7z m449 -287 c102 -109 200 -214 218 -234 l31
-35 -96 -67 c-53 -36 -103 -70 -110 -74 -16 -10 -244 -8 -254 2 -7 8 -68 598
-68 662 l1 45 46 -50 c25 -27 130 -139 232 -249z m-354 233 c10 -15 -1 -23
-20 -15 -9 3 -13 10 -10 16 8 13 22 13 30 -1z"/>
</g>
</svg>
