<svg xmlns="http://www.w3.org/2000/svg" viewBox="0 0 251.874919 183.911143"
 preserveAspectRatio="xMidYMid meet">
<g transform="translate(-12.000000,195.917259) scale(0.100000,-0.100000)"
fill="currentColor" stroke="none">
<path d="M264 1949 c-3 -6 15 -42 42 -81 l48 -70 -45 -42 c-24 -22 -77 -70
-116 -105 -42 -37 -73 -72 -73 -83 0 -21 37 -98 47 -98 7 0 187 96 220 118 19
12 24 12 27 1 35 -102 301 -807 308 -814 6 -7 37 5 91 33 45 23 86 42 91 42 5
0 66 -60 137 -132 l127 -133 52 -140 c29 -76 49 -141 44 -143 -76 -31 -289
-150 -289 -162 0 -13 31 -15 210 -17 l210 -3 59 101 c33 55 64 102 68 105 5 3
30 -8 57 -25 l48 -31 502 0 c446 0 502 2 508 16 10 27 -6 32 -347 109 -184 42
-388 88 -452 102 l-116 27 -16 62 c-9 34 -45 133 -82 220 -37 88 -86 206 -109
264 -89 217 -136 325 -146 335 -5 5 -113 22 -239 36 l-229 26 -208 202 c-188
183 -216 207 -295 247 -89 45 -121 53 -134 33z m154 -98 c68 -36 169 -150 175
-198 6 -50 4 -51 -80 -22 l-61 20 5 39 c5 34 0 47 -41 105 -60 86 -60 88 2 56z
m-16 -126 c21 -48 2 -72 -106 -132 -89 -49 -134 -61 -124 -33 4 13 200 189
211 190 4 0 13 -11 19 -25z m355 -187 l102 -103 -72 -128 c-39 -70 -74 -124
-77 -120 -4 5 -19 100 -34 213 -15 113 -30 213 -32 223 -10 33 12 17 113 -85z
m-206 29 l55 -16 33 -238 c18 -131 35 -247 38 -258 27 -99 -159 375 -202 514
-6 18 -4 23 6 19 8 -3 39 -13 70 -21z m554 -173 c94 -9 173 -20 178 -24 4 -3
-60 -73 -143 -153 l-150 -147 15 -38 c23 -61 115 -314 115 -318 0 -2 -88 84
-196 191 l-196 194 88 161 c63 113 93 158 104 156 8 -3 92 -12 185 -22z m301
-189 c75 -180 84 -241 84 -564 l0 -263 -52 -87 c-63 -105 -57 -98 -69 -81 -15
24 -118 293 -224 581 l-97 265 144 142 c79 78 147 140 152 139 4 -2 33 -61 62
-132z m-558 -292 c18 -17 16 -20 -31 -48 -60 -35 -63 -33 -71 38 -4 34 -10 76
-13 92 -6 31 8 21 115 -82z m750 -173 c69 -168 82 -225 56 -245 -28 -21 -31
-18 -74 80 -38 85 -40 93 -40 194 0 57 2 102 3 100 2 -2 27 -60 55 -129z m-23
-275 c13 -30 30 -57 37 -60 7 -2 146 -22 308 -44 l295 -39 -289 -1 -290 -1
-48 33 -47 32 -1 68 c0 37 2 67 5 67 3 0 16 -25 30 -55z m302 -27 c78 -17 141
-33 139 -35 -4 -4 -329 37 -335 42 -8 9 12 25 31 25 12 0 86 -14 165 -32z
m-567 -218 c11 -23 18 -45 15 -50 -7 -12 -205 -14 -205 -2 0 5 152 89 167 92
2 0 12 -18 23 -40z"/>
</g>
</svg>
